<svg xmlns="http://www.w3.org/2000/svg" viewBox="0 0 64 64"><defs><mask id="veins"><rect width="64" height="64" fill="white"></rect><g fill="none" stroke="black" stroke-linecap="round"><path d="M40.5 34 Q33.5 33.8 27.5 33.4" stroke-width="1.8"></path><path d="M48 29.4 Q54 28.6 58.8 29" stroke-width="1.8"></path><path d="M52.5 28.9 Q53.8 26.8 56 25.6" stroke-width="1.5"></path><path d="M48 43.8 Q55.5 42.8 60.3 44" stroke-width="1.8"></path><path d="M53 43.2 Q54.8 40.8 57.5 39.4" stroke-width="1.5"></path></g></mask></defs><g class="m" mask="url(#veins)"><path d="M35.3 19.3 A18 18 0 1 0 43 34" fill="none" stroke="#22d3ee" stroke-width="6.5" stroke-linecap="round"></path><path d="M43 18 L43 52" fill="none" stroke="#22d3ee" stroke-width="6.5" stroke-linecap="round"></path><path d="M42 30.5 Q32 27 24 33.5 Q31.5 40.5 42 37.5 Q44 34 42 30.5 Z" fill="#22d3ee"></path><path d="M46.5 23.5 C55.5 22 60.5 25.5 61 29.5 C58 35 49.5 36 46.5 34.5 Z" fill="#22d3ee"></path><path d="M46.5 38 C56.5 36 62 40 62.5 44.5 C58.5 50.5 49.5 51.5 46.5 49 Z" fill="#22d3ee"></path></g></svg>